<?xml version="1.0" encoding="UTF-8"?>
<svg id="Ebene_2" data-name="Ebene 2" xmlns="http://www.w3.org/2000/svg" viewBox="0 0 513.38 305.5">
  <defs>
    <style>
      .cls-1 {
        letter-spacing: 0em;
      }

      .cls-2 {
        letter-spacing: -.01em;
      }

      .cls-3 {
        letter-spacing: 0em;
      }

      .cls-4 {
        letter-spacing: -.01em;
      }

      .cls-5 {
        font-size: 8px;
      }

      .cls-5, .cls-6 {
        font-family: BarlowCondensed-Medium, 'Barlow Condensed';
      }

      .cls-7 {
        fill: #ea86b5;
      }

      .cls-7, .cls-8, .cls-9, .cls-10, .cls-11 {
        opacity: .5;
      }

      .cls-12 {
        letter-spacing: 0em;
      }

      .cls-13 {
        letter-spacing: 0em;
      }

      .cls-14 {
        letter-spacing: 0em;
      }

      .cls-15 {
        letter-spacing: -.01em;
      }

      .cls-16 {
        letter-spacing: 0em;
      }

      .cls-17 {
        letter-spacing: -.02em;
      }

      .cls-8 {
        fill: #ee772a;
      }

      .cls-18 {
        letter-spacing: -.06em;
      }

      .cls-9 {
        fill: #8b559e;
      }

      .cls-19 {
        letter-spacing: 0em;
      }

      .cls-20 {
        letter-spacing: -.02em;
      }

      .cls-6 {
        font-size: 8.01px;
      }

      .cls-21 {
        letter-spacing: 0em;
      }

      .cls-22 {
        letter-spacing: 0em;
      }

      .cls-23 {
        letter-spacing: 0em;
      }

      .cls-24 {
        letter-spacing: 0em;
      }

      .cls-25 {
        letter-spacing: -.04em;
      }

      .cls-26 {
        font-size: 5px;
      }

      .cls-26, .cls-27, .cls-28, .cls-29 {
        font-family: ContrailOne-Regular, 'Contrail One';
      }

      .cls-30 {
        fill: none;
        opacity: .6;
        stroke-dasharray: 0 0 2 6;
        stroke-width: .5px;
      }

      .cls-30, .cls-31, .cls-32 {
        stroke-miterlimit: 10;
      }

      .cls-30, .cls-32 {
        stroke: #1d1d1b;
      }

      .cls-33 {
        letter-spacing: -.02em;
      }

      .cls-34 {
        letter-spacing: 0em;
      }

      .cls-35 {
        letter-spacing: 0em;
      }

      .cls-36 {
        letter-spacing: -.02em;
      }

      .cls-37 {
        letter-spacing: 0em;
      }

      .cls-10 {
        fill: #3e6bb3;
      }

      .cls-31 {
        fill: #fff;
        stroke: #fff;
      }

      .cls-11 {
        fill: #fad13e;
      }

      .cls-38 {
        letter-spacing: 0em;
      }

      .cls-32, .cls-27, .cls-28, .cls-39, .cls-29 {
        fill: #1d1d1b;
      }

      .cls-27 {
        font-size: 22px;
      }

      .cls-40 {
        letter-spacing: 0em;
      }

      .cls-41 {
        letter-spacing: 0em;
      }

      .cls-42 {
        letter-spacing: -.01em;
      }

      .cls-43 {
        letter-spacing: 0em;
      }

      .cls-28 {
        font-size: 6.16px;
      }

      .cls-44 {
        letter-spacing: 0em;
      }

      .cls-29 {
        font-size: 13px;
      }
    </style>
  </defs>
  <g id="Ebene_1-2" data-name="Ebene 1">
    <rect class="cls-31" x=".5" y=".5" width="512.38" height="304.5"/>
    <line class="cls-30" x1="23.62" y1="90.15" x2="512.37" y2="90"/>
    <rect class="cls-11" x="34.38" y="173.16" width="100" height="16.34" rx="4.82" ry="4.82"/>
    <rect class="cls-11" x="403.12" y="139.88" width="100.26" height="65.62" rx="4.82" ry="4.82"/>
    <text class="cls-27" transform="translate(7.33 24.49)"><tspan x="0" y="0">Sonntag</tspan></text>
    <text class="cls-29" transform="translate(48.9 46.1)"><tspan x="0" y="0">Großer Saal</tspan></text>
    <text class="cls-29" transform="translate(285.98 47.13)"><tspan x="0" y="0">Workshopraum 2</tspan></text>
    <text class="cls-29" transform="translate(426.17 45.95)"><tspan x="0" y="0">Sonstiges</tspan></text>
    <line class="cls-32" x1="4.37" y1="50.81" x2="512.38" y2="50.81"/>
    <text class="cls-28" transform="translate(10.13 62.14)"><tspan x="0" y="0">11:00</tspan></text>
    <text class="cls-28" transform="translate(8.39 94.56)"><tspan x="0" y="0">12:00</tspan></text>
    <text class="cls-28" transform="translate(9.33 128.69)"><tspan x="0" y="0">13:00</tspan></text>
    <text class="cls-28" transform="translate(8.71 161.66)"><tspan x="0" y="0">14:00</tspan></text>
    <text class="cls-28" transform="translate(9.64 228.21)"><tspan x="0" y="0">16:00</tspan></text>
    <text class="cls-28" transform="translate(9.33 195.25)"><tspan x="0" y="0">15:00</tspan></text>
    <text class="cls-28" transform="translate(8.19 260.03)"><tspan x="0" y="0">17:00</tspan></text>
    <text class="cls-28" transform="translate(9.64 294.77)"><tspan x="0" y="0">18:00</tspan></text>
    <text id="_11:15_Anime_Quiz" data-name="11:15 Anime Quiz" class="cls-39" transform="translate(39.52 178.85)"><tspan class="cls-26"><tspan x="0" y="0">14:30</tspan></tspan><tspan class="cls-5"><tspan class="cls-3" x="0" y="8.98">C</tspan><tspan x="3.54" y="8.98">ospl</tspan><tspan class="cls-35" x="15.04" y="8.98">a</tspan><tspan class="cls-24" x="18.37" y="8.98">y Carfting </tspan><tspan class="cls-25" x="47.13" y="8.98">W</tspan><tspan class="cls-38" x="51.96" y="8.98">e</tspan><tspan class="cls-24" x="55.26" y="8.98">ttb</tspan><tspan class="cls-3" x="63.11" y="8.98">e</tspan><tspan class="cls-42" x="66.38" y="8.98">w</tspan><tspan x="70.9" y="8.98">erb</tspan></tspan></text>
    <text id="_11:15_Anime_Quiz-2" data-name="11:15 Anime Quiz" class="cls-39" transform="translate(407.88 147.12) scale(1.07 1)"><tspan class="cls-26"><tspan x="0" y="0">13:30</tspan></tspan><tspan class="cls-5"><tspan class="cls-36" x="0" y="8.98">Y</tspan><tspan class="cls-1" x="3.36" y="8.98">u-Gi-Oh! </tspan><tspan class="cls-17" x="28.13" y="8.98">T</tspan><tspan class="cls-23" x="31.44" y="8.98">r</tspan><tspan x="33.85" y="8.98">ading Ca</tspan><tspan class="cls-13" x="57.85" y="8.98">r</tspan><tspan x="60.24" y="8.98" xml:space="preserve">d Game  </tspan></tspan><tspan class="cls-5"><tspan class="cls-15" x="0" y="17.97">T</tspan><tspan x="3.4" y="17.97">urnier</tspan></tspan></text>
    <line class="cls-30" x1="23.62" y1="56.7" x2="512.38" y2="57.02"/>
    <line class="cls-30" x1="23.62" y1="123.14" x2="512.37" y2="123"/>
    <line class="cls-30" x1="23.61" y1="156.32" x2="512.36" y2="156"/>
    <line class="cls-30" x1="23.63" y1="189.59" x2="512.38" y2="188.99"/>
    <line class="cls-30" x1="23.62" y1="222.94" x2="512.38" y2="223.05"/>
    <line class="cls-30" x1="23.62" y1="256.16" x2="512.38" y2="256.16"/>
    <line class="cls-30" x1="23.62" y1="289.57" x2="512.38" y2="289.57"/>
    <rect class="cls-8" x="34.38" y="128.5" width="100" height="35" rx="4.82" ry="4.82"/>
    <text id="_11:15_Anime_Quiz-3" data-name="11:15 Anime Quiz" class="cls-39" transform="translate(39.74 134.32)"><tspan class="cls-26"><tspan x="0" y="0">13:10</tspan></tspan><tspan class="cls-6"><tspan x="0" y="8.99">Lyria</tspan></tspan></text>
    <text class="cls-29" transform="translate(148.68 47.13)"><tspan x="0" y="0">Workshopraum 1</tspan></text>
    <rect class="cls-7" x="34.38" y="93.5" width="100" height="19" rx="4.82" ry="4.82"/>
    <rect class="cls-9" x="34.38" y="256.5" width="100" height="33" rx="4.82" ry="4.82"/>
    <text id="_11:15_Anime_Quiz-4" data-name="11:15 Anime Quiz" class="cls-39" transform="translate(39.72 263.12)"><tspan class="cls-26"><tspan x="0" y="0">17:00</tspan></tspan><tspan class="cls-6"><tspan x="0" y="8.99">End</tspan><tspan class="cls-19" x="10.37" y="8.99">v</tspan><tspan class="cls-44" x="13.49" y="8.99">e</tspan><tspan class="cls-12" x="16.82" y="8.99">r</tspan><tspan x="19.23" y="8.99">anstaltung und </tspan></tspan><tspan class="cls-6"><tspan x="0" y="17.99">Siege</tspan><tspan class="cls-21" x="15.17" y="17.99">r</tspan><tspan x="17.57" y="17.99">ehrungen</tspan></tspan></text>
    <rect class="cls-8" x="34.35" y="232.5" width="100" height="18" rx="4.82" ry="4.82"/>
    <text id="_11:15_Anime_Quiz-5" data-name="11:15 Anime Quiz" class="cls-39" transform="translate(39.72 239.12)"><tspan class="cls-26"><tspan x="0" y="0">16:20</tspan></tspan><tspan class="cls-6"><tspan class="cls-20" x="0" y="8.99">Y</tspan><tspan x="3.36" y="8.99">uri Hi</tspan><tspan class="cls-22" x="18.06" y="8.99">r</tspan><tspan x="20.47" y="8.99">ano</tspan></tspan></text>
    <rect class="cls-10" x="142.99" y="56.5" width="120.9" height="50" rx="4.82" ry="4.82"/>
    <g id="_11:15_Anime_Quiz-6" data-name="11:15 Anime Quiz">
      <path class="cls-39" d="M148.67,60.32l.73-.03s.04,.02,.04,.06l-.35,3.21,.39-.02s.06,.02,.06,.06l-.06,.47s-.02,.06-.06,.07l-1.35,.05s-.06-.02-.06-.06l.05-.47s.02-.06,.06-.06h.37s.29-2.64,.29-2.64h-.36s-.06,0-.06-.04c0-.02,.03-.11,.09-.25,.06-.15,.1-.24,.12-.28,.02-.04,.05-.06,.08-.06Z"/>
      <path class="cls-39" d="M150.92,60.32l.73-.03s.04,.02,.04,.06l-.35,3.21,.39-.02s.06,.02,.06,.06l-.06,.47s-.02,.06-.06,.07l-1.35,.05s-.06-.02-.06-.06l.05-.47s.02-.06,.06-.06h.37s.29-2.64,.29-2.64h-.36s-.06,0-.06-.04c0-.02,.03-.11,.09-.25,.06-.15,.1-.24,.12-.28,.02-.04,.05-.06,.08-.06Z"/>
      <path class="cls-39" d="M152.81,64.21c-.1,0-.18-.03-.25-.1-.06-.07-.09-.15-.09-.26s.04-.2,.12-.28c.08-.08,.17-.12,.28-.12s.18,.03,.25,.1c.06,.07,.09,.15,.09,.26s-.04,.2-.12,.28-.17,.12-.28,.12Zm.21-1.94c-.1,0-.18-.03-.25-.1-.06-.07-.09-.15-.09-.26s.04-.2,.12-.28,.17-.12,.28-.12,.18,.03,.25,.1c.06,.07,.09,.15,.09,.26s-.04,.2-.12,.28c-.08,.08-.17,.12-.28,.12Z"/>
      <path class="cls-39" d="M154.58,64.22c-.47,0-.7-.31-.7-.94,0-.16,.01-.4,.04-.74,.03-.34,.06-.63,.11-.87,.04-.25,.07-.41,.09-.48s.04-.16,.06-.25,.06-.17,.09-.23,.07-.12,.11-.18,.1-.11,.16-.15c.13-.08,.29-.12,.47-.12,.46,0,.69,.32,.69,.96,0,.16-.01,.41-.04,.74-.03,.33-.06,.62-.1,.86-.04,.24-.07,.4-.08,.48-.02,.08-.04,.16-.06,.25-.03,.09-.05,.17-.09,.23-.03,.06-.07,.12-.12,.18-.05,.06-.1,.11-.16,.14-.13,.08-.29,.12-.47,.12Zm.06-2.77c-.04,.22-.07,.52-.11,.92-.04,.39-.05,.7-.05,.93s.06,.34,.17,.34c.07,0,.12-.04,.17-.13,.05-.09,.09-.24,.12-.46,.04-.22,.07-.52,.11-.91s.06-.7,.06-.93-.06-.34-.17-.34c-.07,0-.12,.05-.17,.14-.05,.09-.09,.24-.12,.46Z"/>
      <path class="cls-39" d="M156.84,64.22c-.47,0-.7-.31-.7-.94,0-.16,.01-.4,.04-.74,.03-.34,.06-.63,.11-.87,.04-.25,.07-.41,.09-.48s.04-.16,.06-.25,.06-.17,.09-.23,.07-.12,.11-.18,.1-.11,.16-.15c.13-.08,.29-.12,.47-.12,.46,0,.69,.32,.69,.96,0,.16-.01,.41-.04,.74-.03,.33-.06,.62-.1,.86-.04,.24-.07,.4-.08,.48-.02,.08-.04,.16-.06,.25-.03,.09-.05,.17-.09,.23-.03,.06-.07,.12-.12,.18-.05,.06-.1,.11-.16,.14-.13,.08-.29,.12-.47,.12Zm.06-2.77c-.04,.22-.07,.52-.11,.92-.04,.39-.05,.7-.05,.93s.06,.34,.17,.34c.07,0,.12-.04,.17-.13,.05-.09,.09-.24,.12-.46,.04-.22,.07-.52,.11-.91s.06-.7,.06-.93-.06-.34-.17-.34c-.07,0-.12,.05-.17,.14-.05,.09-.09,.24-.12,.46Z"/>
      <path class="cls-39" d="M150.6,68.62c.24,.3,.36,.68,.36,1.16s-.12,.85-.35,1.14c-.23,.29-.54,.43-.93,.43h-.72s-.03,.01-.03,.03v2.32c0,.05-.03,.08-.08,.08h-.58c-.05,0-.08-.03-.08-.08v-5.45c0-.05,.03-.08,.08-.08h1.37c.39,0,.71,.15,.95,.44Zm-.56,1.86c.13-.17,.19-.4,.19-.68s-.06-.53-.19-.7c-.13-.17-.3-.26-.51-.26h-.57s-.03,.01-.03,.03v1.83s.01,.03,.03,.03h.57c.21,0,.38-.08,.51-.25Z"/>
      <path class="cls-39" d="M153.4,69.76s.05,.06,.04,.1l-.11,.61s-.04,.06-.09,.05c-.07-.03-.14-.04-.21-.04-.03,0-.08,0-.14,.02-.16,.02-.29,.11-.39,.27-.1,.17-.16,.37-.16,.6v2.34c0,.05-.03,.08-.08,.08h-.58c-.05,0-.08-.03-.08-.08v-3.91c0-.05,.03-.08,.08-.08h.58c.05,0,.08,.03,.08,.08v.46s0,.03,.01,.03c0,0,.01,0,.02-.02,.15-.39,.39-.59,.71-.59,.13,0,.24,.03,.33,.09Z"/>
      <path class="cls-39" d="M156.31,72.07h-1.73s-.03,.01-.03,.03v.43c0,.19,.05,.35,.15,.47,.1,.12,.23,.18,.4,.18,.14,0,.26-.04,.36-.14,.1-.09,.16-.21,.18-.35,.02-.04,.04-.06,.08-.06l.57,.03s.04,0,.06,.02c.01,.02,.02,.04,.01,.06-.04,.35-.16,.62-.38,.81s-.51,.29-.89,.29c-.39,0-.71-.11-.94-.34-.23-.23-.35-.54-.35-.92v-1.66c0-.38,.12-.69,.35-.92,.23-.23,.55-.35,.94-.35s.71,.12,.94,.35c.23,.23,.34,.54,.34,.92v1.06c0,.05-.03,.08-.08,.08Zm-1.61-1.57c-.1,.12-.15,.28-.15,.47v.42s.01,.03,.03,.03h1.05s.03-.01,.03-.03v-.42c0-.19-.05-.35-.15-.47-.1-.12-.24-.18-.41-.18s-.3,.06-.4,.18Z"/>
      <path class="cls-39" d="M156.38,75.36v-.5c0-.05,.03-.08,.08-.08,.41,0,.62-.26,.62-.77v-4.22c0-.05,.03-.08,.08-.08h.58c.05,0,.08,.03,.08,.08v4.22c0,.33-.03,.6-.1,.8s-.19,.36-.39,.47c-.19,.11-.48,.17-.85,.17-.07,0-.1-.03-.1-.08Zm.71-6.43c-.09-.1-.14-.22-.14-.37s.05-.27,.14-.37c.09-.1,.21-.14,.35-.14s.27,.05,.36,.14c.09,.1,.14,.22,.14,.37s-.05,.27-.14,.37c-.09,.1-.21,.14-.36,.14s-.26-.05-.35-.14Z"/>
      <path class="cls-39" d="M160.5,69.72h.58c.05,0,.08,.03,.08,.08v3.91c0,.05-.03,.08-.08,.08h-.58c-.05,0-.08-.03-.08-.08v-.23s0-.02-.01-.02c0,0-.02,0-.03,.02-.15,.25-.4,.38-.74,.38-.31,0-.55-.1-.74-.29s-.28-.49-.28-.89v-2.86c0-.05,.03-.08,.08-.08h.58c.05,0,.08,.03,.08,.08v2.7c0,.46,.17,.69,.52,.69,.17,0,.31-.07,.4-.2,.09-.13,.14-.31,.14-.54v-2.65c0-.05,.03-.08,.08-.08Z"/>
      <path class="cls-39" d="M163.81,68.19h.58c.05,0,.08,.03,.08,.08v5.44c0,.05-.03,.08-.08,.08h-.58c-.05,0-.08-.03-.08-.08v-.13s0-.02-.01-.02-.02,0-.03,0c-.1,.1-.21,.17-.33,.22-.12,.05-.25,.07-.37,.07-.34,0-.6-.12-.8-.35-.2-.23-.29-.54-.29-.92v-1.66c0-.4,.1-.71,.29-.93s.46-.34,.8-.34c.12,0,.25,.02,.37,.07s.23,.12,.33,.22c.01,.01,.02,.01,.03,0s.01-.01,.01-.02v-1.66c0-.05,.03-.08,.08-.08Zm-.26,4.85c.1-.1,.16-.23,.18-.39v-1.8c-.02-.16-.08-.29-.18-.39-.1-.1-.22-.15-.36-.15-.16,0-.3,.06-.4,.18-.1,.12-.16,.28-.16,.47v1.56c0,.19,.05,.35,.16,.47,.1,.12,.24,.18,.4,.18,.14,0,.26-.05,.36-.15Z"/>
      <path class="cls-39" d="M167.11,69.72h.58c.05,0,.08,.03,.08,.08v3.87c0,.56-.12,.99-.37,1.3-.25,.31-.67,.46-1.26,.46h-.21c-.05-.01-.08-.04-.08-.1v-.51c0-.05,.03-.08,.08-.08,.42,.02,.71-.07,.86-.26,.16-.19,.23-.48,.23-.88v-.17s0-.02-.01-.02c0,0-.02,0-.03,.01-.17,.25-.42,.37-.74,.37s-.6-.11-.78-.34c-.18-.23-.27-.53-.27-.92v-1.6c0-.4,.09-.71,.28-.93s.44-.34,.77-.34,.58,.12,.74,.37c.01,.01,.02,.01,.03,0s.01-.01,.01-.02v-.21c0-.05,.03-.08,.08-.08Zm-.23,3.23c.1-.12,.15-.28,.15-.47v-1.5c0-.19-.05-.35-.15-.47-.1-.12-.23-.18-.39-.18s-.3,.06-.4,.18c-.1,.12-.15,.28-.15,.47v1.5c0,.19,.05,.35,.15,.47,.1,.12,.23,.18,.4,.18s.29-.06,.39-.18Z"/>
      <path class="cls-39" d="M168.6,68.93c-.09-.1-.14-.22-.14-.37s.05-.27,.14-.37c.09-.1,.21-.14,.35-.14s.27,.05,.36,.14c.09,.09,.13,.22,.13,.37s-.05,.27-.14,.37c-.09,.1-.21,.14-.35,.14s-.26-.05-.35-.14Zm0,4.78v-3.91c0-.05,.03-.08,.08-.08h.58c.05,0,.08,.03,.08,.08v3.91c0,.05-.03,.08-.08,.08h-.58c-.05,0-.08-.03-.08-.08Z"/>
      <path class="cls-39" d="M172.47,70c.17,.23,.26,.55,.26,.96v2.74c0,.05-.03,.08-.08,.08h-.58c-.05,0-.08-.03-.08-.08v-2.68c0-.22-.05-.4-.14-.52-.09-.12-.22-.18-.38-.18s-.3,.06-.39,.18c-.09,.12-.15,.29-.16,.51,0,.03,0,.05,0,.05v2.65c0,.05-.03,.08-.08,.08h-.58c-.05,0-.08-.03-.08-.08v-3.91c0-.05,.03-.08,.08-.08h.58c.05,0,.08,.03,.08,.08v.22s0,.02,.02,.02c0,0,.02,0,.03-.02,.18-.23,.44-.35,.77-.35s.57,.11,.74,.34Z"/>
      <path class="cls-39" d="M175.32,69.72h.58c.05,0,.08,.03,.08,.08v3.87c0,.56-.12,.99-.37,1.3-.25,.31-.67,.46-1.26,.46h-.21c-.05-.01-.08-.04-.08-.1v-.51c0-.05,.03-.08,.08-.08,.42,.02,.71-.07,.86-.26,.16-.19,.23-.48,.23-.88v-.17s0-.02-.01-.02c0,0-.02,0-.03,.01-.17,.25-.42,.37-.74,.37s-.6-.11-.78-.34c-.18-.23-.27-.53-.27-.92v-1.6c0-.4,.09-.71,.28-.93s.44-.34,.77-.34,.58,.12,.74,.37c.01,.01,.02,.01,.03,0s.01-.01,.01-.02v-.21c0-.05,.03-.08,.08-.08Zm-.23,3.23c.1-.12,.15-.28,.15-.47v-1.5c0-.19-.05-.35-.15-.47-.1-.12-.23-.18-.39-.18s-.3,.06-.4,.18c-.1,.12-.15,.28-.15,.47v1.5c0,.19,.05,.35,.15,.47,.1,.12,.23,.18,.4,.18s.29-.06,.39-.18Z"/>
      <path class="cls-39" d="M179.17,69.68s.01,.03,.03,.03h.54c.05,0,.08,.03,.08,.08v.4c0,.05-.03,.08-.08,.08h-.54s-.03,.01-.03,.03v3.4c0,.05-.03,.08-.08,.08h-.57c-.05,0-.08-.03-.08-.08v-3.4s-.01-.03-.03-.03h-.28c-.05,0-.08-.03-.08-.08v-.4c0-.05,.03-.08,.08-.08h.28s.03-.01,.03-.03v-.21c0-.47,.09-.81,.28-1.02,.19-.21,.5-.31,.92-.31h.1c.05,0,.08,.03,.08,.08l-.02,.49c0,.05-.03,.08-.08,.08h-.08c-.17,0-.29,.06-.37,.17s-.12,.29-.12,.53v.18Z"/>
      <path class="cls-39" d="M182.29,69.72h.58c.05,0,.08,.03,.08,.08v3.91c0,.05-.03,.08-.08,.08h-.58c-.05,0-.08-.03-.08-.08v-.23s0-.02-.01-.02c0,0-.02,0-.03,.02-.15,.25-.4,.38-.74,.38-.31,0-.55-.1-.74-.29s-.28-.49-.28-.89v-2.86c0-.05,.03-.08,.08-.08h.58c.05,0,.08,.03,.08,.08v2.7c0,.46,.17,.69,.52,.69,.17,0,.31-.07,.4-.2,.09-.13,.14-.31,.14-.54v-2.65c0-.05,.03-.08,.08-.08Zm-1.59-.78c-.09-.1-.14-.22-.14-.37s.05-.27,.14-.37c.09-.1,.21-.14,.35-.14s.26,.05,.35,.14c.09,.1,.14,.22,.14,.37s-.05,.27-.14,.37-.21,.14-.35,.14-.26-.05-.35-.14Zm1.24,0c-.09-.1-.14-.22-.14-.37s.05-.27,.14-.37c.09-.1,.21-.14,.35-.14s.26,.05,.35,.14c.09,.1,.14,.22,.14,.37s-.05,.27-.14,.37-.21,.14-.35,.14-.26-.05-.35-.14Z"/>
      <path class="cls-39" d="M185.56,69.76s.05,.06,.04,.1l-.11,.61s-.04,.06-.09,.05c-.07-.03-.14-.04-.21-.04-.03,0-.08,0-.14,.02-.16,.02-.29,.11-.39,.27-.1,.17-.16,.37-.16,.6v2.34c0,.05-.03,.08-.08,.08h-.58c-.05,0-.08-.03-.08-.08v-3.91c0-.05,.03-.08,.08-.08h.58c.05,0,.08,.03,.08,.08v.46s0,.03,.01,.03c0,0,.01,0,.02-.02,.15-.39,.39-.59,.71-.59,.13,0,.24,.03,.33,.09Z"/>
      <path class="cls-39" d="M189.46,68.19h.58c.05,0,.08,.03,.08,.08v5.44c0,.05-.03,.08-.08,.08h-.58c-.05,0-.08-.03-.08-.08v-.13s0-.02-.01-.02-.02,0-.03,0c-.1,.1-.21,.17-.33,.22-.12,.05-.25,.07-.37,.07-.34,0-.6-.12-.8-.35-.2-.23-.29-.54-.29-.92v-1.66c0-.4,.1-.71,.29-.93s.46-.34,.8-.34c.12,0,.25,.02,.37,.07s.23,.12,.33,.22c.01,.01,.02,.01,.03,0s.01-.01,.01-.02v-1.66c0-.05,.03-.08,.08-.08Zm-.26,4.85c.1-.1,.16-.23,.18-.39v-1.8c-.02-.16-.08-.29-.18-.39-.1-.1-.22-.15-.36-.15-.16,0-.3,.06-.4,.18-.1,.12-.16,.28-.16,.47v1.56c0,.19,.05,.35,.16,.47,.1,.12,.24,.18,.4,.18,.14,0,.26-.05,.36-.15Z"/>
      <path class="cls-39" d="M190.98,68.93c-.09-.1-.14-.22-.14-.37s.05-.27,.14-.37c.09-.1,.21-.14,.35-.14s.27,.05,.36,.14c.09,.09,.13,.22,.13,.37s-.05,.27-.14,.37c-.09,.1-.21,.14-.35,.14s-.26-.05-.35-.14Zm0,4.78v-3.91c0-.05,.03-.08,.08-.08h.58c.05,0,.08,.03,.08,.08v3.91c0,.05-.03,.08-.08,.08h-.58c-.05,0-.08-.03-.08-.08Z"/>
      <path class="cls-39" d="M194.98,72.07h-1.73s-.03,.01-.03,.03v.43c0,.19,.05,.35,.15,.47,.1,.12,.23,.18,.4,.18,.14,0,.26-.04,.36-.14,.1-.09,.16-.21,.18-.35,.02-.04,.04-.06,.08-.06l.57,.03s.04,0,.06,.02c.01,.02,.02,.04,.01,.06-.04,.35-.16,.62-.38,.81s-.51,.29-.89,.29c-.39,0-.71-.11-.94-.34-.23-.23-.35-.54-.35-.92v-1.66c0-.38,.12-.69,.35-.92,.23-.23,.55-.35,.94-.35s.71,.12,.94,.35c.23,.23,.34,.54,.34,.92v1.06c0,.05-.03,.08-.08,.08Zm-1.61-1.57c-.1,.12-.15,.28-.15,.47v.42s.01,.03,.03,.03h1.05s.03-.01,.03-.03v-.42c0-.19-.05-.35-.15-.47-.1-.12-.24-.18-.41-.18s-.3,.06-.4,.18Z"/>
      <path class="cls-39" d="M200.01,68.27v.5c0,.05-.03,.08-.08,.08h-1s-.03,.01-.03,.03v4.82c0,.05-.03,.08-.08,.08h-.58c-.05,0-.08-.03-.08-.08v-4.82s-.01-.03-.03-.03h-.95c-.05,0-.08-.03-.08-.08v-.5c0-.05,.03-.08,.08-.08h2.75c.05,0,.08,.03,.08,.08Z"/>
      <path class="cls-39" d="M202.63,72.07h-1.73s-.03,.01-.03,.03v.43c0,.19,.05,.35,.15,.47,.1,.12,.23,.18,.4,.18,.14,0,.26-.04,.36-.14,.1-.09,.16-.21,.18-.35,.02-.04,.04-.06,.08-.06l.57,.03s.04,0,.06,.02c.01,.02,.02,.04,.01,.06-.04,.35-.16,.62-.38,.81s-.51,.29-.89,.29c-.39,0-.71-.11-.94-.34-.23-.23-.35-.54-.35-.92v-1.66c0-.38,.12-.69,.35-.92,.23-.23,.55-.35,.94-.35s.71,.12,.94,.35c.23,.23,.34,.54,.34,.92v1.06c0,.05-.03,.08-.08,.08Zm-1.61-1.57c-.1,.12-.15,.28-.15,.47v.42s.01,.03,.03,.03h1.05s.03-.01,.03-.03v-.42c0-.19-.05-.35-.15-.47-.1-.12-.24-.18-.41-.18s-.3,.06-.4,.18Z"/>
      <path class="cls-39" d="M203.45,68.93c-.09-.1-.14-.22-.14-.37s.05-.27,.14-.37c.09-.1,.21-.14,.35-.14s.27,.05,.36,.14c.09,.09,.13,.22,.13,.37s-.05,.27-.14,.37c-.09,.1-.21,.14-.35,.14s-.26-.05-.35-.14Zm0,4.78v-3.91c0-.05,.03-.08,.08-.08h.58c.05,0,.08,.03,.08,.08v3.91c0,.05-.03,.08-.08,.08h-.58c-.05,0-.08-.03-.08-.08Z"/>
      <path class="cls-39" d="M204.99,73.71v-5.44c0-.05,.03-.08,.08-.08h.58c.05,0,.08,.03,.08,.08v5.44c0,.05-.03,.08-.08,.08h-.58c-.05,0-.08-.03-.08-.08Z"/>
      <path class="cls-39" d="M208.78,70c.17,.23,.26,.55,.26,.96v2.74c0,.05-.03,.08-.08,.08h-.58c-.05,0-.08-.03-.08-.08v-2.68c0-.22-.05-.4-.14-.52-.09-.12-.22-.18-.38-.18s-.3,.06-.39,.18c-.09,.12-.15,.29-.16,.51,0,.03,0,.05,0,.05v2.65c0,.05-.03,.08-.08,.08h-.58c-.05,0-.08-.03-.08-.08v-3.91c0-.05,.03-.08,.08-.08h.58c.05,0,.08,.03,.08,.08v.22s0,.02,.02,.02c0,0,.02,0,.03-.02,.18-.23,.44-.35,.77-.35s.57,.11,.74,.34Z"/>
      <path class="cls-39" d="M212.22,72.07h-1.73s-.03,.01-.03,.03v.43c0,.19,.05,.35,.15,.47,.1,.12,.23,.18,.4,.18,.14,0,.26-.04,.36-.14,.1-.09,.16-.21,.18-.35,.02-.04,.04-.06,.08-.06l.57,.03s.04,0,.06,.02c.01,.02,.02,.04,.01,.06-.04,.35-.16,.62-.38,.81s-.51,.29-.89,.29c-.39,0-.71-.11-.94-.34-.23-.23-.35-.54-.35-.92v-1.66c0-.38,.12-.69,.35-.92,.23-.23,.55-.35,.94-.35s.71,.12,.94,.35c.23,.23,.34,.54,.34,.92v1.06c0,.05-.03,.08-.08,.08Zm-1.61-1.57c-.1,.12-.15,.28-.15,.47v.42s.01,.03,.03,.03h1.05s.03-.01,.03-.03v-.42c0-.19-.05-.35-.15-.47-.1-.12-.24-.18-.41-.18s-.3,.06-.4,.18Z"/>
      <path class="cls-39" d="M215.28,70c.17,.23,.26,.55,.26,.96v2.74c0,.05-.03,.08-.08,.08h-.58c-.05,0-.08-.03-.08-.08v-2.68c0-.22-.05-.4-.14-.52-.09-.12-.22-.18-.38-.18s-.3,.06-.39,.18c-.09,.12-.15,.29-.16,.51,0,.03,0,.05,0,.05v2.65c0,.05-.03,.08-.08,.08h-.58c-.05,0-.08-.03-.08-.08v-5.44c0-.05,.03-.08,.08-.08h.58c.05,0,.08,.03,.08,.08v1.74s0,.02,.02,.02c0,0,.02,0,.03-.02,.18-.23,.44-.35,.77-.35s.57,.11,.74,.34Z"/>
      <path class="cls-39" d="M220.31,70.02c.17,.24,.26,.57,.26,1v2.7c0,.05-.03,.08-.08,.08h-.57c-.05,0-.08-.03-.08-.08v-2.64c0-.23-.05-.42-.14-.55-.09-.13-.21-.2-.37-.2-.16,0-.29,.07-.39,.2-.1,.13-.15,.31-.15,.54v2.65c0,.05-.03,.08-.08,.08h-.57c-.05,0-.08-.03-.08-.08v-2.64c0-.23-.05-.42-.14-.55-.09-.13-.21-.2-.37-.2-.16,0-.29,.07-.39,.2-.1,.13-.15,.31-.15,.54v2.65c0,.05-.03,.08-.08,.08h-.57c-.05,0-.08-.03-.08-.08v-3.91c0-.05,.03-.08,.08-.08h.57c.05,0,.08,.03,.08,.08v.2s0,.02,.01,.02,.02,0,.03,0c.1-.12,.22-.21,.35-.26s.27-.09,.4-.09c.39,0,.67,.18,.84,.54,0,.01,.01,.01,.02,.01,.01,0,.02-.01,.02-.04,.1-.18,.23-.31,.39-.39,.16-.08,.32-.12,.49-.12,.32,0,.56,.12,.73,.36Z"/>
      <path class="cls-39" d="M223.76,72.07h-1.73s-.03,.01-.03,.03v.43c0,.19,.05,.35,.15,.47,.1,.12,.23,.18,.4,.18,.14,0,.26-.04,.36-.14,.1-.09,.16-.21,.18-.35,.02-.04,.04-.06,.08-.06l.57,.03s.04,0,.06,.02c.01,.02,.02,.04,.01,.06-.04,.35-.16,.62-.38,.81s-.51,.29-.89,.29c-.39,0-.71-.11-.94-.34-.23-.23-.35-.54-.35-.92v-1.66c0-.38,.12-.69,.35-.92,.23-.23,.55-.35,.94-.35s.71,.12,.94,.35c.23,.23,.34,.54,.34,.92v1.06c0,.05-.03,.08-.08,.08Zm-1.61-1.57c-.1,.12-.15,.28-.15,.47v.42s.01,.03,.03,.03h1.05s.03-.01,.03-.03v-.42c0-.19-.05-.35-.15-.47-.1-.12-.24-.18-.41-.18s-.3,.06-.4,.18Z"/>
      <path class="cls-39" d="M226.34,69.76s.05,.06,.04,.1l-.11,.61s-.04,.06-.09,.05c-.07-.03-.14-.04-.21-.04-.03,0-.08,0-.14,.02-.16,.02-.29,.11-.39,.27-.1,.17-.16,.37-.16,.6v2.34c0,.05-.03,.08-.08,.08h-.58c-.05,0-.08-.03-.08-.08v-3.91c0-.05,.03-.08,.08-.08h.58c.05,0,.08,.03,.08,.08v.46s0,.03,.01,.03c0,0,.01,0,.02-.02,.15-.39,.39-.59,.71-.59,.13,0,.24,.03,.33,.09Z"/>
      <path class="cls-39" d="M230.23,68.19h.58c.05,0,.08,.03,.08,.08v5.44c0,.05-.03,.08-.08,.08h-.58c-.05,0-.08-.03-.08-.08v-.13s0-.02-.01-.02-.02,0-.03,0c-.1,.1-.21,.17-.33,.22-.12,.05-.25,.07-.37,.07-.34,0-.6-.12-.8-.35-.2-.23-.29-.54-.29-.92v-1.66c0-.4,.1-.71,.29-.93s.46-.34,.8-.34c.12,0,.25,.02,.37,.07s.23,.12,.33,.22c.01,.01,.02,.01,.03,0s.01-.01,.01-.02v-1.66c0-.05,.03-.08,.08-.08Zm-.26,4.85c.1-.1,.16-.23,.18-.39v-1.8c-.02-.16-.08-.29-.18-.39-.1-.1-.22-.15-.36-.15-.16,0-.3,.06-.4,.18-.1,.12-.16,.28-.16,.47v1.56c0,.19,.05,.35,.16,.47,.1,.12,.24,.18,.4,.18,.14,0,.26-.05,.36-.15Z"/>
      <path class="cls-39" d="M234.13,72.07h-1.73s-.03,.01-.03,.03v.43c0,.19,.05,.35,.15,.47,.1,.12,.23,.18,.4,.18,.14,0,.26-.04,.36-.14,.1-.09,.16-.21,.18-.35,.02-.04,.04-.06,.08-.06l.57,.03s.04,0,.06,.02c.01,.02,.02,.04,.01,.06-.04,.35-.16,.62-.38,.81s-.51,.29-.89,.29c-.39,0-.71-.11-.94-.34-.23-.23-.35-.54-.35-.92v-1.66c0-.38,.12-.69,.35-.92,.23-.23,.55-.35,.94-.35s.71,.12,.94,.35c.23,.23,.34,.54,.34,.92v1.06c0,.05-.03,.08-.08,.08Zm-1.61-1.57c-.1,.12-.15,.28-.15,.47v.42s.01,.03,.03,.03h1.05s.03-.01,.03-.03v-.42c0-.19-.05-.35-.15-.47-.1-.12-.24-.18-.41-.18s-.3,.06-.4,.18Z"/>
      <path class="cls-39" d="M235.08,73.54c-.22-.19-.33-.46-.33-.79v-.07c0-.05,.03-.08,.08-.08h.54c.05,0,.08,.03,.08,.08v.06c0,.14,.05,.27,.16,.36,.11,.1,.24,.15,.4,.15s.28-.05,.37-.14c.09-.1,.14-.22,.14-.37,0-.12-.03-.22-.1-.3-.07-.08-.14-.14-.23-.19-.09-.04-.23-.11-.41-.19-.2-.09-.36-.18-.49-.26s-.25-.21-.35-.37-.15-.36-.15-.61c0-.36,.11-.65,.33-.85s.51-.3,.88-.3,.68,.1,.89,.31,.33,.49,.33,.85v.02c0,.05-.03,.08-.08,.08h-.53c-.05,0-.08-.03-.08-.08v-.06c0-.14-.05-.27-.15-.37-.1-.1-.22-.15-.38-.15s-.28,.05-.38,.15c-.09,.1-.14,.22-.14,.37,0,.11,.03,.21,.09,.28,.06,.07,.14,.13,.22,.18s.22,.11,.41,.2c.21,.1,.38,.19,.52,.28,.14,.09,.26,.21,.36,.37,.1,.16,.16,.36,.16,.6,0,.35-.11,.62-.34,.82-.23,.2-.54,.3-.92,.3s-.69-.1-.91-.29Z"/>
      <path class="cls-39" d="M148.48,82.44c-.25-.26-.38-.61-.38-1.05v-2.84c0-.44,.13-.79,.38-1.05s.59-.39,1-.39,.75,.13,1.01,.39,.38,.61,.38,1.05v.13c0,.05-.03,.08-.08,.08l-.58,.03c-.05,0-.08-.03-.08-.08v-.21c0-.22-.06-.39-.18-.53s-.28-.2-.47-.2-.35,.07-.47,.2c-.12,.13-.18,.31-.18,.53v2.94c0,.22,.06,.4,.18,.53,.12,.13,.27,.2,.47,.2s.35-.07,.47-.2,.18-.31,.18-.53v-.21c0-.05,.03-.08,.08-.08l.58,.03c.05,0,.08,.03,.08,.08v.12c0,.44-.13,.79-.38,1.05s-.59,.4-1.01,.4-.75-.13-1-.4Z"/>
      <path class="cls-39" d="M151.81,82.49c-.23-.23-.35-.54-.35-.92v-1.66c0-.38,.12-.69,.35-.92,.23-.23,.55-.35,.94-.35s.72,.12,.95,.35c.23,.23,.35,.54,.35,.92v1.66c0,.38-.12,.69-.35,.92-.23,.23-.55,.35-.95,.35s-.71-.12-.95-.35Zm1.35-.5c.11-.12,.16-.28,.16-.48v-1.55c0-.19-.05-.35-.16-.47-.11-.12-.24-.18-.41-.18s-.3,.06-.4,.18c-.1,.12-.16,.28-.16,.47v1.55c0,.2,.05,.36,.16,.48,.1,.12,.24,.18,.4,.18s.3-.06,.41-.18Z"/>
      <path class="cls-39" d="M154.98,82.53c-.22-.19-.33-.46-.33-.79v-.07c0-.05,.03-.08,.08-.08h.54c.05,0,.08,.03,.08,.08v.06c0,.14,.05,.27,.16,.36,.11,.1,.24,.15,.4,.15s.28-.05,.37-.14c.09-.1,.14-.22,.14-.37,0-.12-.03-.22-.1-.3-.07-.08-.14-.14-.23-.19-.09-.04-.23-.11-.41-.19-.2-.09-.36-.18-.49-.26s-.25-.21-.35-.37-.15-.36-.15-.61c0-.36,.11-.65,.33-.85s.51-.3,.88-.3,.68,.1,.89,.31,.33,.49,.33,.85v.02c0,.05-.03,.08-.08,.08h-.53c-.05,0-.08-.03-.08-.08v-.06c0-.14-.05-.27-.15-.37-.1-.1-.22-.15-.38-.15s-.28,.05-.38,.15c-.09,.1-.14,.22-.14,.37,0,.11,.03,.21,.09,.28,.06,.07,.14,.13,.22,.18s.22,.11,.41,.2c.21,.1,.38,.19,.52,.28,.14,.09,.26,.21,.36,.37,.1,.16,.16,.36,.16,.6,0,.35-.11,.62-.34,.82-.23,.2-.54,.3-.92,.3s-.69-.1-.91-.29Z"/>
      <path class="cls-39" d="M160.05,78.98c.2,.23,.29,.54,.29,.92v1.66c0,.39-.1,.71-.29,.93s-.46,.34-.79,.34c-.12,0-.25-.02-.37-.07-.13-.05-.24-.12-.33-.22-.03-.02-.04-.01-.04,.02v1.66c0,.05-.03,.08-.08,.08h-.58c-.05,0-.08-.03-.08-.08v-5.44c0-.05,.03-.08,.08-.08h.58c.05,0,.08,.03,.08,.08v.13s0,.02,.02,.02c.01,0,.02,0,.03-.01,.1-.1,.21-.17,.33-.21s.25-.07,.37-.07c.33,0,.6,.12,.79,.35Zm-.59,.5c-.1-.12-.24-.18-.4-.18s-.29,.06-.39,.18c-.1,.12-.15,.28-.15,.47v1.56c0,.19,.05,.35,.15,.47,.1,.12,.23,.18,.39,.18s.3-.06,.4-.18c.1-.12,.16-.28,.16-.47v-1.56c0-.19-.05-.35-.16-.47Z"/>
      <path class="cls-39" d="M161.05,82.69v-5.44c0-.05,.03-.08,.08-.08h.58c.05,0,.08,.03,.08,.08v5.44c0,.05-.03,.08-.08,.08h-.58c-.05,0-.08-.03-.08-.08Z"/>
      <path class="cls-39" d="M164.71,79c.24,.25,.36,.57,.36,.97v2.72c0,.05-.03,.08-.08,.08h-.58c-.05,0-.08-.03-.08-.08v-.18s0-.02-.01-.02c0,0-.02,0-.03,0-.18,.22-.44,.34-.79,.34-.29,0-.55-.09-.77-.26-.22-.17-.33-.48-.33-.92s.13-.8,.4-1.02c.27-.22,.62-.32,1.05-.32h.44s.03-.01,.03-.03v-.23c0-.22-.05-.4-.15-.54-.1-.14-.23-.2-.4-.2-.13,0-.23,.05-.32,.14s-.14,.21-.15,.35c0,.05-.03,.08-.08,.08h-.62c-.05,0-.08-.03-.08-.08,.03-.34,.16-.62,.39-.83s.53-.32,.87-.32c.37,0,.68,.12,.92,.37Zm-.58,2.98c.13-.12,.2-.28,.2-.5v-.54s-.01-.03-.03-.03h-.47c-.2,0-.37,.06-.49,.17-.12,.11-.18,.28-.18,.5,0,.19,.05,.34,.14,.43,.09,.1,.21,.14,.37,.14,.18,0,.33-.06,.47-.18Z"/>
      <path class="cls-39" d="M165.62,84.34s-.02-.03-.02-.06v-.47c0-.05,.03-.08,.08-.08,.16,0,.29-.03,.39-.08,.09-.05,.17-.14,.23-.27,.06-.13,.11-.33,.15-.58v-.04s-.99-3.97-.99-3.97v-.02s.02-.06,.07-.06h.63c.05,0,.08,.02,.08,.07l.56,2.89s.01,.02,.02,.02,.01,0,.02-.02l.55-2.89s.04-.07,.08-.07h.64s.04,.02,.06,.03,.01,.04,0,.06l-1.05,4.26c-.1,.37-.19,.64-.29,.82s-.23,.31-.4,.38c-.17,.07-.42,.11-.73,.11h-.04s-.02,0-.03-.02Z"/>
      <path class="cls-39" d="M170.58,82.44c-.25-.26-.38-.61-.38-1.05v-2.84c0-.44,.13-.79,.38-1.05s.59-.39,1-.39,.75,.13,1.01,.39,.38,.61,.38,1.05v.13c0,.05-.03,.08-.08,.08l-.58,.03c-.05,0-.08-.03-.08-.08v-.21c0-.22-.06-.39-.18-.53s-.28-.2-.47-.2-.35,.07-.47,.2c-.12,.13-.18,.31-.18,.53v2.94c0,.22,.06,.4,.18,.53,.12,.13,.27,.2,.47,.2s.35-.07,.47-.2,.18-.31,.18-.53v-.21c0-.05,.03-.08,.08-.08l.58,.03c.05,0,.08,.03,.08,.08v.12c0,.44-.13,.79-.38,1.05s-.59,.4-1.01,.4-.75-.13-1-.4Z"/>
      <path class="cls-39" d="M175.5,78.75s.05,.06,.04,.1l-.11,.61s-.04,.06-.09,.05c-.07-.03-.14-.04-.21-.04-.03,0-.08,0-.14,.02-.16,.02-.29,.11-.39,.27-.1,.17-.16,.37-.16,.6v2.34c0,.05-.03,.08-.08,.08h-.58c-.05,0-.08-.03-.08-.08v-3.91c0-.05,.03-.08,.08-.08h.58c.05,0,.08,.03,.08,.08v.46s0,.03,.01,.03c0,0,.01,0,.02-.02,.15-.39,.39-.59,.71-.59,.13,0,.24,.03,.33,.09Z"/>
      <path class="cls-39" d="M178.17,79c.24,.25,.36,.57,.36,.97v2.72c0,.05-.03,.08-.08,.08h-.58c-.05,0-.08-.03-.08-.08v-.18s0-.02-.01-.02c0,0-.02,0-.03,0-.18,.22-.44,.34-.79,.34-.29,0-.55-.09-.77-.26-.22-.17-.33-.48-.33-.92s.13-.8,.4-1.02c.27-.22,.62-.32,1.05-.32h.44s.03-.01,.03-.03v-.23c0-.22-.05-.4-.15-.54-.1-.14-.23-.2-.4-.2-.13,0-.23,.05-.32,.14s-.14,.21-.15,.35c0,.05-.03,.08-.08,.08h-.62c-.05,0-.08-.03-.08-.08,.03-.34,.16-.62,.39-.83s.53-.32,.87-.32c.37,0,.68,.12,.92,.37Zm-.58,2.98c.13-.12,.2-.28,.2-.5v-.54s-.01-.03-.03-.03h-.47c-.2,0-.37,.06-.49,.17-.12,.11-.18,.28-.18,.5,0,.19,.05,.34,.14,.43,.09,.1,.21,.14,.37,.14,.18,0,.33-.06,.47-.18Z"/>
      <path class="cls-39" d="M180.17,78.67s.01,.03,.03,.03h.54c.05,0,.08,.03,.08,.08v.4c0,.05-.03,.08-.08,.08h-.54s-.03,.01-.03,.03v3.4c0,.05-.03,.08-.08,.08h-.57c-.05,0-.08-.03-.08-.08v-3.4s-.01-.03-.03-.03h-.28c-.05,0-.08-.03-.08-.08v-.4c0-.05,.03-.08,.08-.08h.28s.03-.01,.03-.03v-.21c0-.47,.09-.81,.28-1.02,.19-.21,.5-.31,.92-.31h.1c.05,0,.08,.03,.08,.08l-.02,.49c0,.05-.03,.08-.08,.08h-.08c-.17,0-.29,.06-.37,.17s-.12,.29-.12,.53v.18Z"/>
      <path class="cls-39" d="M182.89,79.26h-.54s-.03,.01-.03,.03v2.25c0,.21,.04,.36,.11,.44,.07,.08,.18,.12,.34,.12h.07c.05,0,.08,.03,.08,.08v.51c0,.05-.03,.08-.08,.08h-.24c-.33,0-.57-.07-.74-.2-.17-.13-.25-.39-.25-.76v-2.52s-.01-.03-.03-.03h-.3c-.05,0-.08-.03-.08-.08v-.4c0-.05,.03-.08,.08-.08h.3s.03-.01,.03-.03v-.9c0-.05,.03-.08,.08-.08h.56c.05,0,.08,.03,.08,.08v.9s.01,.03,.03,.03h.54c.05,0,.08,.03,.08,.08v.4c0,.05-.03,.08-.08,.08Z"/>
      <path class="cls-39" d="M183.6,77.92c-.09-.1-.14-.22-.14-.37s.05-.27,.14-.37c.09-.1,.21-.14,.35-.14s.27,.05,.36,.14c.09,.09,.13,.22,.13,.37s-.05,.27-.14,.37c-.09,.1-.21,.14-.35,.14s-.26-.05-.35-.14Zm0,4.78v-3.91c0-.05,.03-.08,.08-.08h.58c.05,0,.08,.03,.08,.08v3.91c0,.05-.03,.08-.08,.08h-.58c-.05,0-.08-.03-.08-.08Z"/>
      <path class="cls-39" d="M187.47,78.98c.17,.23,.26,.55,.26,.96v2.74c0,.05-.03,.08-.08,.08h-.58c-.05,0-.08-.03-.08-.08v-2.68c0-.22-.05-.4-.14-.52-.09-.12-.22-.18-.38-.18s-.3,.06-.39,.18c-.09,.12-.15,.29-.16,.51,0,.03,0,.05,0,.05v2.65c0,.05-.03,.08-.08,.08h-.58c-.05,0-.08-.03-.08-.08v-3.91c0-.05,.03-.08,.08-.08h.58c.05,0,.08,.03,.08,.08v.22s0,.02,.02,.02c0,0,.02,0,.03-.02,.18-.23,.44-.35,.77-.35s.57,.11,.74,.34Z"/>
      <path class="cls-39" d="M190.32,78.7h.58c.05,0,.08,.03,.08,.08v3.87c0,.56-.12,.99-.37,1.3-.25,.31-.67,.46-1.26,.46h-.21c-.05-.01-.08-.04-.08-.1v-.51c0-.05,.03-.08,.08-.08,.42,.02,.71-.07,.86-.26,.16-.19,.23-.48,.23-.88v-.17s0-.02-.01-.02c0,0-.02,0-.03,.01-.17,.25-.42,.37-.74,.37s-.6-.11-.78-.34c-.18-.23-.27-.53-.27-.92v-1.6c0-.4,.09-.71,.28-.93s.44-.34,.77-.34,.58,.12,.74,.37c.01,.01,.02,.01,.03,0s.01-.01,.01-.02v-.21c0-.05,.03-.08,.08-.08Zm-.23,3.23c.1-.12,.15-.28,.15-.47v-1.5c0-.19-.05-.35-.15-.47-.1-.12-.23-.18-.39-.18s-.3,.06-.4,.18c-.1,.12-.15,.28-.15,.47v1.5c0,.19,.05,.35,.15,.47,.1,.12,.23,.18,.4,.18s.29-.06,.39-.18Z"/>
      <path class="cls-39" d="M194.08,82.7l-1.02-5.44v-.02s.02-.07,.07-.07h.61c.05,0,.08,.02,.08,.07l.62,3.75s0,.02,.02,.02c0,0,.01,0,.02-.02l.55-3.75s.03-.07,.08-.07h.51s.07,.02,.08,.07l.59,3.75s.01,.02,.02,.02,.01,0,.02-.02l.57-3.75s.04-.07,.08-.07h.6s.04,0,.06,.02c.01,.02,.02,.04,.01,.06l-.97,5.44s-.03,.07-.08,.07h-.54s-.07-.02-.08-.07l-.58-3.78s-.01-.02-.02-.02c0,0-.01,0-.01,.02l-.55,3.78s-.03,.07-.08,.07h-.54s-.07-.02-.08-.07Z"/>
      <path class="cls-39" d="M200.32,81.05h-1.73s-.03,.01-.03,.03v.43c0,.19,.05,.35,.15,.47,.1,.12,.23,.18,.4,.18,.14,0,.26-.04,.36-.14,.1-.09,.16-.21,.18-.35,.02-.04,.04-.06,.08-.06l.57,.03s.04,0,.06,.02c.01,.02,.02,.04,.01,.06-.04,.35-.16,.62-.38,.81s-.51,.29-.89,.29c-.39,0-.71-.11-.94-.34-.23-.23-.35-.54-.35-.92v-1.66c0-.38,.12-.69,.35-.92,.23-.23,.55-.35,.94-.35s.71,.12,.94,.35c.23,.23,.34,.54,.34,.92v1.06c0,.05-.03,.08-.08,.08Zm-1.61-1.57c-.1,.12-.15,.28-.15,.47v.42s.01,.03,.03,.03h1.05s.03-.01,.03-.03v-.42c0-.19-.05-.35-.15-.47-.1-.12-.24-.18-.41-.18s-.3,.06-.4,.18Z"/>
      <path class="cls-39" d="M202.5,79.26h-.54s-.03,.01-.03,.03v2.25c0,.21,.04,.36,.11,.44,.07,.08,.18,.12,.34,.12h.07c.05,0,.08,.03,.08,.08v.51c0,.05-.03,.08-.08,.08h-.24c-.33,0-.57-.07-.74-.2-.17-.13-.25-.39-.25-.76v-2.52s-.01-.03-.03-.03h-.3c-.05,0-.08-.03-.08-.08v-.4c0-.05,.03-.08,.08-.08h.3s.03-.01,.03-.03v-.9c0-.05,.03-.08,.08-.08h.56c.05,0,.08,.03,.08,.08v.9s.01,.03,.03,.03h.54c.05,0,.08,.03,.08,.08v.4c0,.05-.03,.08-.08,.08Z"/>
      <path class="cls-39" d="M204.61,79.26h-.54s-.03,.01-.03,.03v2.25c0,.21,.04,.36,.11,.44,.07,.08,.18,.12,.34,.12h.07c.05,0,.08,.03,.08,.08v.51c0,.05-.03,.08-.08,.08h-.24c-.33,0-.57-.07-.74-.2-.17-.13-.25-.39-.25-.76v-2.52s-.01-.03-.03-.03h-.3c-.05,0-.08-.03-.08-.08v-.4c0-.05,.03-.08,.08-.08h.3s.03-.01,.03-.03v-.9c0-.05,.03-.08,.08-.08h.56c.05,0,.08,.03,.08,.08v.9s.01,.03,.03,.03h.54c.05,0,.08,.03,.08,.08v.4c0,.05-.03,.08-.08,.08Z"/>
      <path class="cls-39" d="M207.55,78.98c.19,.23,.29,.54,.29,.93v1.66c0,.38-.1,.68-.3,.92-.2,.23-.46,.35-.79,.35-.12,0-.25-.02-.37-.07-.12-.05-.24-.12-.33-.22-.01-.01-.02-.01-.03,0,0,0-.01,.01-.01,.02v.13c0,.05-.03,.08-.08,.08h-.58c-.05,0-.08-.03-.08-.08v-5.44c0-.05,.03-.08,.08-.08h.58c.05,0,.08,.03,.08,.08v1.66s0,.02,.02,.02c0,0,.02,0,.03-.02,.19-.19,.43-.28,.7-.28,.34,0,.6,.11,.8,.34Zm-.59,.51c-.1-.12-.24-.18-.4-.18s-.29,.06-.39,.18c-.1,.12-.15,.28-.15,.47v1.56c0,.19,.05,.35,.15,.47,.1,.12,.23,.18,.39,.18s.3-.06,.4-.18c.1-.12,.16-.28,.16-.47v-1.56c0-.19-.05-.35-.16-.47Z"/>
      <path class="cls-39" d="M211,81.05h-1.73s-.03,.01-.03,.03v.43c0,.19,.05,.35,.15,.47,.1,.12,.23,.18,.4,.18,.14,0,.26-.04,.36-.14,.1-.09,.16-.21,.18-.35,.02-.04,.04-.06,.08-.06l.57,.03s.04,0,.06,.02c.01,.02,.02,.04,.01,.06-.04,.35-.16,.62-.38,.81s-.51,.29-.89,.29c-.39,0-.71-.11-.94-.34-.23-.23-.35-.54-.35-.92v-1.66c0-.38,.12-.69,.35-.92,.23-.23,.55-.35,.94-.35s.71,.12,.94,.35c.23,.23,.34,.54,.34,.92v1.06c0,.05-.03,.08-.08,.08Zm-1.61-1.57c-.1,.12-.15,.28-.15,.47v.42s.01,.03,.03,.03h1.05s.03-.01,.03-.03v-.42c0-.19-.05-.35-.15-.47-.1-.12-.24-.18-.41-.18s-.3,.06-.4,.18Z"/>
      <path class="cls-39" d="M212.28,82.7l-.82-3.91v-.02s.02-.07,.07-.07h.56c.05,0,.08,.02,.08,.07l.48,2.76s0,.02,.02,.02c0,0,.01,0,.02-.02l.48-2.76s.04-.07,.08-.07h.51c.05,0,.08,.02,.08,.07l.5,2.76s.01,.02,.02,.02c0,0,.01,0,.02-.02l.48-2.76s.04-.07,.08-.07h.55s.04,.02,.06,.03,.02,.04,.01,.06l-.83,3.9s-.03,.07-.08,.07h-.57s-.07-.02-.08-.07l-.48-2.62s-.01-.02-.02-.02c0,0-.01,0-.02,.02l-.47,2.62s-.03,.07-.08,.07h-.55s-.07-.02-.08-.07Z"/>
      <path class="cls-39" d="M218.46,81.05h-1.73s-.03,.01-.03,.03v.43c0,.19,.05,.35,.15,.47,.1,.12,.23,.18,.4,.18,.14,0,.26-.04,.36-.14,.1-.09,.16-.21,.18-.35,.02-.04,.04-.06,.08-.06l.57,.03s.04,0,.06,.02c.01,.02,.02,.04,.01,.06-.04,.35-.16,.62-.38,.81s-.51,.29-.89,.29c-.39,0-.71-.11-.94-.34-.23-.23-.35-.54-.35-.92v-1.66c0-.38,.12-.69,.35-.92,.23-.23,.55-.35,.94-.35s.71,.12,.94,.35c.23,.23,.34,.54,.34,.92v1.06c0,.05-.03,.08-.08,.08Zm-1.61-1.57c-.1,.12-.15,.28-.15,.47v.42s.01,.03,.03,.03h1.05s.03-.01,.03-.03v-.42c0-.19-.05-.35-.15-.47-.1-.12-.24-.18-.41-.18s-.3,.06-.4,.18Z"/>
      <path class="cls-39" d="M221.04,78.75s.05,.06,.04,.1l-.11,.61s-.04,.06-.09,.05c-.07-.03-.14-.04-.21-.04-.03,0-.08,0-.14,.02-.16,.02-.29,.11-.39,.27-.1,.17-.16,.37-.16,.6v2.34c0,.05-.03,.08-.08,.08h-.58c-.05,0-.08-.03-.08-.08v-3.91c0-.05,.03-.08,.08-.08h.58c.05,0,.08,.03,.08,.08v.46s0,.03,.01,.03c0,0,.01,0,.02-.02,.15-.39,.39-.59,.71-.59,.13,0,.24,.03,.33,.09Z"/>
      <path class="cls-39" d="M223.83,78.98c.19,.23,.29,.54,.29,.93v1.66c0,.38-.1,.68-.3,.92-.2,.23-.46,.35-.79,.35-.12,0-.25-.02-.37-.07-.12-.05-.24-.12-.33-.22-.01-.01-.02-.01-.03,0,0,0-.01,.01-.01,.02v.13c0,.05-.03,.08-.08,.08h-.58c-.05,0-.08-.03-.08-.08v-5.44c0-.05,.03-.08,.08-.08h.58c.05,0,.08,.03,.08,.08v1.66s0,.02,.02,.02c0,0,.02,0,.03-.02,.19-.19,.43-.28,.7-.28,.34,0,.6,.11,.8,.34Zm-.59,.51c-.1-.12-.24-.18-.4-.18s-.29,.06-.39,.18c-.1,.12-.15,.28-.15,.47v1.56c0,.19,.05,.35,.15,.47,.1,.12,.23,.18,.39,.18s.3-.06,.4-.18c.1-.12,.16-.28,.16-.47v-1.56c0-.19-.05-.35-.16-.47Z"/>
      <path class="cls-39" d="M225.06,82.53c-.22-.19-.33-.46-.33-.79v-.07c0-.05,.03-.08,.08-.08h.54c.05,0,.08,.03,.08,.08v.06c0,.14,.05,.27,.16,.36,.11,.1,.24,.15,.4,.15s.28-.05,.37-.14c.09-.1,.14-.22,.14-.37,0-.12-.03-.22-.1-.3-.07-.08-.14-.14-.23-.19-.09-.04-.23-.11-.41-.19-.2-.09-.36-.18-.49-.26s-.25-.21-.35-.37-.15-.36-.15-.61c0-.36,.11-.65,.33-.85s.51-.3,.88-.3,.68,.1,.89,.31,.33,.49,.33,.85v.02c0,.05-.03,.08-.08,.08h-.53c-.05,0-.08-.03-.08-.08v-.06c0-.14-.05-.27-.15-.37-.1-.1-.22-.15-.38-.15s-.28,.05-.38,.15c-.09,.1-.14,.22-.14,.37,0,.11,.03,.21,.09,.28,.06,.07,.14,.13,.22,.18s.22,.11,.41,.2c.21,.1,.38,.19,.52,.28,.14,.09,.26,.21,.36,.37,.1,.16,.16,.36,.16,.6,0,.35-.11,.62-.34,.82-.23,.2-.54,.3-.92,.3s-.69-.1-.91-.29Z"/>
    </g>
    <rect class="cls-10" x="142.49" y="116.41" width="120.9" height="32.09" rx="5.15" ry="5.15"/>
    <text id="_11:15_Anime_Quiz-7" data-name="11:15 Anime Quiz" class="cls-39" transform="translate(148.24 123.18)"><tspan class="cls-26"><tspan x="0" y="0">12:45</tspan></tspan><tspan class="cls-5"><tspan class="cls-25" x="0" y="8.98">W</tspan><tspan x="4.83" y="8.98">olfus: </tspan><tspan class="cls-35" x="22.06" y="8.98">C</tspan><tspan x="25.6" y="8.98">ospl</tspan><tspan class="cls-35" x="37.1" y="8.98">a</tspan><tspan class="cls-24" x="40.42" y="8.98">y &amp; Nachhaltig</tspan><tspan class="cls-4" x="81.06" y="8.98">k</tspan><tspan x="84.32" y="8.98">eit: Wie </tspan></tspan><tspan class="cls-5"><tspan x="0" y="17.97">du U</tspan><tspan class="cls-38" x="12.32" y="17.97">m</tspan><tspan class="cls-42" x="17.54" y="17.97">w</tspan><tspan x="22.06" y="17.97">elt &amp; </tspan><tspan class="cls-35" x="36.84" y="17.97">G</tspan><tspan x="40.42" y="17.97">eldbeutel schonst </tspan></tspan></text>
    <rect class="cls-10" x="273.3" y="51.42" width="120.9" height="43.08" rx="8.53" ry="8.53"/>
    <text id="_11:15_Anime_Quiz-8" data-name="11:15 Anime Quiz" class="cls-39" transform="translate(279.54 57.71)"><tspan class="cls-26"><tspan x="0" y="0">10:45</tspan></tspan><tspan class="cls-5"><tspan x="0" y="8.98">Die Ringe der Macht - </tspan></tspan><tspan class="cls-5"><tspan x="0" y="17.97">Entstehung, </tspan><tspan class="cls-33" x="34.61" y="17.97">F</tspan><tspan x="37.74" y="17.97">ähig</tspan><tspan class="cls-2" x="49.66" y="17.97">k</tspan><tspan x="52.92" y="17.97">eiten und </tspan><tspan class="cls-25" x="80.5" y="17.97">V</tspan><tspan x="83.82" y="17.97">erbleib</tspan></tspan></text>
    <rect class="cls-10" x="142.3" y="223.5" width="120.9" height="19" rx="5.19" ry="5.19"/>
    <text id="_11:15_Anime_Quiz-9" data-name="11:15 Anime Quiz" class="cls-39" transform="translate(148.62 229.2)"><tspan class="cls-26"><tspan x="0" y="0">16:00</tspan></tspan><tspan class="cls-5"><tspan x="0" y="8.98">Scarl</tspan><tspan class="cls-16" x="14.07" y="8.98">e</tspan><tspan class="cls-37" x="17.38" y="8.98">tt: </tspan><tspan class="cls-35" x="25.25" y="8.98">C</tspan><tspan x="28.79" y="8.98">ospl</tspan><tspan class="cls-35" x="40.29" y="8.98">a</tspan><tspan x="43.62" y="8.98">y Saf</tspan><tspan class="cls-38" x="57.4" y="8.98">e</tspan><tspan class="cls-24" x="60.7" y="8.98">ty 101</tspan></tspan></text>
    <rect class="cls-10" x="272.85" y="100.5" width="120.9" height="36" rx="4.82" ry="4.82"/>
    <text id="_11:15_Anime_Quiz-10" data-name="11:15 Anime Quiz" class="cls-39" transform="translate(277.79 107.2)"><tspan class="cls-26"><tspan x="0" y="0">12:20</tspan></tspan><tspan class="cls-5"><tspan x="0" y="8.98">Stellaria: J-Pop und K-Pop</tspan></tspan><tspan class="cls-5"><tspan x="0" y="17.97">Random Pl</tspan><tspan class="cls-35" x="29.31" y="17.97">a</tspan><tspan class="cls-24" x="32.64" y="17.97">y Dance </tspan></tspan></text>
    <rect class="cls-10" x="272.85" y="141.5" width="120.9" height="33" rx="5.97" ry="5.97"/>
    <text id="_11:15_Anime_Quiz-11" data-name="11:15 Anime Quiz" class="cls-39" transform="translate(277.94 148.78)"><tspan class="cls-26"><tspan x="0" y="0">13:35</tspan></tspan><tspan class="cls-5"><tspan x="0" y="8.98">Speedpainting Challenge</tspan></tspan></text>
    <rect class="cls-10" x="142.85" y="183.31" width="120.9" height="33.19" rx="4.31" ry="4.31"/>
    <text id="_11:15_Anime_Quiz-12" data-name="11:15 Anime Quiz" class="cls-39" transform="translate(147.99 189.17)"><tspan class="cls-26"><tspan x="0" y="0">14:50</tspan></tspan><tspan class="cls-5"><tspan x="0" y="8.98">E</tspan><tspan class="cls-41" x="3.46" y="8.98">r</tspan><tspan x="5.86" y="8.98">alia: The basics of E</tspan><tspan class="cls-18" x="61.63" y="8.98">V</tspan><tspan class="cls-37" x="64.81" y="8.98">A foam</tspan></tspan></text>
    <rect class="cls-8" x="34.38" y="56.68" width="100" height="24.45" rx="4.82" ry="4.82"/>
    <text id="_11:15_Anime_Quiz-13" data-name="11:15 Anime Quiz" class="cls-39" transform="translate(38.91 63.4) scale(.98 1)"><tspan class="cls-26"><tspan x="0" y="0">11:00</tspan></tspan><tspan class="cls-5"><tspan class="cls-40" x="0" y="8.98">C</tspan><tspan x="3.54" y="8.98">ellotic Du</tspan><tspan class="cls-43" x="29.34" y="8.98">e</tspan><tspan x="32.64" y="8.98">ts</tspan></tspan></text>
    <text id="_11:15_Anime_Quiz-14" data-name="11:15 Anime Quiz" class="cls-39" transform="translate(39.28 99.53)"><tspan class="cls-26"><tspan x="0" y="0">12:05</tspan></tspan><tspan class="cls-6"><tspan class="cls-34" x="0" y="8.99">S</tspan><tspan x="3.38" y="8.99">ynch</tspan><tspan class="cls-14" x="16.7" y="8.99">r</tspan><tspan x="19.1" y="8.99">onsp</tspan><tspan class="cls-14" x="32.54" y="8.99">r</tspan><tspan x="34.93" y="8.99">echer Q&amp;A</tspan></tspan></text>
    <rect class="cls-8" x="34.54" y="201.29" width="100" height="25.23" rx="4.82" ry="4.82"/>
    <text id="_11:15_Anime_Quiz-15" data-name="11:15 Anime Quiz" class="cls-39" transform="translate(38.91 207.91)"><tspan class="cls-26"><tspan x="0" y="0">15:20</tspan></tspan><tspan class="cls-6"><tspan x="0" y="8.99">MION</tspan></tspan></text>
    <rect class="cls-10" x="273.14" y="183.5" width="120.9" height="33" rx="5.97" ry="5.97"/>
    <text id="_11:15_Anime_Quiz-16" data-name="11:15 Anime Quiz" class="cls-39" transform="translate(279.26 189.78)"><tspan class="cls-26"><tspan x="0" y="0">14:55</tspan></tspan><tspan class="cls-5"><tspan x="0" y="8.98">Speedpainting Challenge</tspan></tspan></text>
  </g>
</svg>